<svg width="30" height="30" viewBox="0 0 30 30" fill="none" xmlns="http://www.w3.org/2000/svg">
<circle cx="15" cy="15" r="15" fill="#EAEAFF"/>
<g clip-path="url(#clip0_1_555)">
<path d="M24.175 17.7756C24.1569 17.6616 24.1418 17.5446 24.1301 17.4182C24.1174 17.3037 24.1086 17.1724 24.1052 17.1228L24.2526 11.0469C24.2741 10.1434 23.5656 9.39053 22.6667 9.36872C22.3239 9.36575 21.987 9.44951 21.6955 9.61207C21.193 9.88864 20.8449 10.3748 20.7252 10.9285C20.6032 10.7847 20.4606 10.6583 20.297 10.5587C20.0831 10.4289 19.8502 10.3501 19.6119 10.3188C19.7003 10.1042 19.7477 9.87823 19.7477 9.65916C19.7521 9.50403 19.7335 9.33948 19.6954 9.18435C19.5807 8.71697 19.2926 8.32245 18.8839 8.07414C18.6232 7.91504 18.3302 7.83029 18.0314 7.81839L17.194 6.26262C16.9864 5.87603 16.6617 5.58261 16.2594 5.41658C15.9132 5.26987 15.526 5.23964 15.1685 5.33034C15.0597 5.35413 14.9517 5.39279 14.8599 5.43987C14.5958 5.56378 14.3717 5.75014 14.1988 5.97565C13.9962 5.70305 13.7227 5.48795 13.3985 5.36206C12.9136 5.18066 12.3755 5.2213 11.9234 5.47258C11.5044 5.70305 11.2007 6.08617 11.0704 6.54215C11.0254 6.69084 10.9996 6.85341 10.9956 7.00457C10.9864 7.23702 11.0249 7.46848 11.1045 7.68507C10.8658 7.70688 10.6309 7.77577 10.4131 7.8967C10.1158 8.05977 9.87308 8.30362 9.71145 8.60149C9.64261 8.72886 9.59134 8.85277 9.55618 8.98114C9.50882 9.15213 9.4844 9.32015 9.4844 9.4733C9.48098 9.72409 9.53421 9.97438 9.63431 10.2093C9.40139 10.2316 9.16897 10.3005 8.9507 10.4209C8.53566 10.6514 8.23195 11.033 8.0962 11.4945C8.09279 11.5064 8.09083 11.5183 8.0879 11.5307C8.05323 11.5282 8.01857 11.5217 7.98341 11.5207C7.55421 11.5227 7.14356 11.6779 6.8335 11.9812C6.52246 12.2855 6.34765 12.6949 6.3413 13.1325L6.24023 19.2069C6.23486 19.2575 6.2207 19.3928 6.20458 19.5088C6.18847 19.6248 6.16796 19.7417 6.14452 19.8582C5.7871 21.6578 6.09374 23.284 7.00928 24.4373C8.03712 25.7319 9.35256 26.3772 10.2754 26.6909C10.8838 26.8976 11.502 27.0012 12.1114 27.0012C12.6451 27.0012 13.1719 26.9219 13.6788 26.7623C14.9415 26.3653 16.0572 25.5807 16.9083 24.5221C17.3131 24.6202 17.7296 24.6703 18.152 24.6703C18.6891 24.6703 19.234 24.5905 19.7726 24.4314C20.7057 24.1583 22.0451 23.5695 23.1252 22.315C24.0876 21.2009 24.4601 19.5891 24.174 17.7766L24.175 17.7756ZM14.9473 6.87967C15.0015 6.68737 15.1334 6.53323 15.3336 6.43906C15.3653 6.4232 15.3873 6.41676 15.3975 6.41477C15.4078 6.41279 15.4176 6.41031 15.4278 6.40784C15.5601 6.37314 15.7066 6.38454 15.8424 6.44203C16.0123 6.51241 16.1476 6.63434 16.2335 6.79393L16.9581 8.13956C16.8209 8.23621 16.6964 8.34921 16.5904 8.48105C16.4278 8.2486 16.2135 8.05431 15.9591 7.92149C15.8526 7.86399 15.7472 7.82186 15.6617 7.80055C15.5025 7.75148 15.3355 7.73067 15.1681 7.72968L14.9972 7.41049C14.9498 7.31979 14.9234 7.22513 14.9205 7.14484C14.9205 7.12352 14.919 7.09626 14.9161 7.06752C14.92 7.00209 14.9303 6.93865 14.9473 6.87967ZM12.1182 6.85836C12.169 6.68192 12.2847 6.5362 12.4463 6.44699C12.6226 6.34886 12.8316 6.333 13.0132 6.4009C13.1715 6.46235 13.3023 6.57784 13.3814 6.72405L13.7364 7.3867C13.7408 7.39513 13.7491 7.40851 13.7574 7.4214L14.0328 7.93586C14.0347 7.93933 14.0357 7.9428 14.0377 7.94577C14.0386 7.94775 14.0401 7.94924 14.0411 7.95122L14.109 8.0781C13.9005 8.22778 13.7208 8.41464 13.586 8.64263L13.1954 9.30379L12.8672 8.69268L12.8297 8.61933C12.8267 8.61388 12.8228 8.60942 12.8199 8.60397L12.1705 7.39116C12.1119 7.2851 12.084 7.16714 12.0889 7.04174C12.0904 6.98227 12.1002 6.92032 12.1187 6.85886L12.1182 6.85836ZM10.6089 9.28099C10.6216 9.2354 10.6412 9.18782 10.669 9.13627C10.729 9.02575 10.8204 8.93455 10.9356 8.87111C11.1163 8.7705 11.3262 8.7586 11.5191 8.83592C11.5303 8.84236 11.5416 8.84831 11.5538 8.85376C11.6495 8.89886 11.7818 8.98659 11.8643 9.14024L11.8985 9.20665C11.9 9.20962 11.9029 9.2121 11.9043 9.21508L12.5435 10.4076L11.7222 11.7963L11.3721 11.1431C11.3721 11.1431 11.3721 11.1431 11.3721 11.1426L10.6612 9.82321C10.605 9.71665 10.5772 9.60365 10.5787 9.48073C10.5787 9.42225 10.5889 9.35534 10.6094 9.28149L10.6089 9.28099ZM9.47415 11.3949C9.81399 11.2085 10.2261 11.3304 10.4112 11.6729L10.4121 11.6749L11.0689 12.9001L10.2461 14.2918L9.89993 13.65L9.90189 13.537C9.91605 12.9026 9.62112 12.3023 9.12502 11.9222C9.12795 11.887 9.13284 11.8498 9.14407 11.8117C9.18166 11.6843 9.27004 11.5079 9.47464 11.3939L9.47415 11.3949ZM13.356 25.7007C12.4913 25.9718 11.5459 25.95 10.6231 25.6367C9.8389 25.3701 8.72316 24.8249 7.86183 23.7395C7.15381 22.8478 6.92481 21.5468 7.2168 20.0773C7.24414 19.94 7.26856 19.8002 7.28809 19.6614C7.31153 19.49 7.33204 19.2843 7.3335 19.2471L7.43409 13.1499C7.43604 13.0086 7.49219 12.8773 7.59229 12.7791C7.69239 12.681 7.82667 12.628 7.95851 12.63C8.11622 12.6344 8.26173 12.6765 8.39064 12.7554C8.65431 12.9159 8.81398 13.2064 8.80764 13.5161L8.80373 13.7744C8.80373 13.7788 8.80227 13.7828 8.80227 13.7872C8.80227 13.7897 8.80324 13.7922 8.80324 13.7947L8.75344 16.9622C8.75002 17.213 8.91262 17.4351 9.15041 17.504C9.38821 17.5724 9.64163 17.4708 9.76907 17.2557L14.524 9.21408C14.6163 9.05796 14.7555 8.94248 14.9303 8.87854C15.0655 8.82799 15.212 8.82254 15.3673 8.86962C15.3912 8.87557 15.4166 8.88647 15.4517 8.90481C15.6329 8.99948 15.7584 9.15907 15.8058 9.35782C15.8204 9.4163 15.8282 9.48123 15.8287 9.54665C15.8258 9.56598 15.8238 9.58432 15.8228 9.60068C15.815 9.7003 15.7862 9.79298 15.7389 9.87624L12.6221 15.1468C12.4669 15.4094 12.5508 15.7504 12.8096 15.9085C12.8975 15.9621 12.9947 15.9878 13.0904 15.9878C13.2759 15.9878 13.4576 15.8917 13.5596 15.7182L16.6622 10.4705C16.6647 10.466 16.6686 10.4631 16.671 10.4586C16.6754 10.4507 16.6788 10.4427 16.6832 10.4353L17.3756 9.26464C17.4601 9.1219 17.5987 9.00889 17.7486 8.95784C17.9396 8.8954 18.1481 8.92018 18.3209 9.02525C18.4786 9.1214 18.59 9.27306 18.6339 9.45298C18.6486 9.51146 18.6554 9.57342 18.6539 9.6428C18.6539 9.75878 18.6202 9.87724 18.5572 9.98429L17.8141 11.2407L14.7413 16.4384C14.586 16.701 14.67 17.042 14.9288 17.2001C15.0167 17.2537 15.1139 17.2794 15.2096 17.2794C15.3951 17.2794 15.5767 17.1833 15.6788 17.0098L18.7887 11.7502C18.8839 11.5896 19.0177 11.5083 19.1134 11.4682C19.1246 11.4632 19.1359 11.4583 19.1476 11.4528C19.3453 11.382 19.5573 11.4028 19.7345 11.5103C19.8453 11.5777 19.9332 11.6734 19.987 11.7824C20.0143 11.8394 20.0333 11.8905 20.0455 11.9405C20.0607 12.0025 20.068 12.0729 20.0661 12.1423C20.0636 12.2558 20.0304 12.3693 19.9708 12.4699L19.7565 12.8327C19.7565 12.8327 19.7555 12.8342 19.755 12.8347L19.2072 13.761L16.8609 17.7295C16.7057 17.9922 16.7897 18.3332 17.0484 18.4913C17.3072 18.6489 17.6432 18.5636 17.7989 18.3009L20.1452 14.3324C20.2404 14.1719 20.3908 14.0584 20.569 14.0133C20.7467 13.9677 20.9323 13.9964 21.091 14.0931C21.2931 14.216 21.3727 14.3934 21.404 14.5203C21.4171 14.5743 21.424 14.6229 21.424 14.6789C21.4274 14.8097 21.3937 14.9391 21.3263 15.0526L16.5738 23.0902C16.5724 23.0927 16.5704 23.0947 16.5689 23.0971C16.4762 23.2538 16.3771 23.4054 16.2726 23.5516C16.2716 23.5526 16.2711 23.5541 16.2701 23.5551C15.5333 24.5825 14.5152 25.3359 13.356 25.7007ZM22.3029 21.5825C21.3971 22.6342 20.2623 23.1313 19.4684 23.3638C18.8395 23.5496 18.2037 23.6002 17.5953 23.5199L22.2638 15.6245C22.4386 15.3292 22.526 14.9916 22.5168 14.664C22.5168 14.5327 22.4992 14.3939 22.464 14.2517C22.3561 13.814 22.0944 13.4418 21.7262 13.192L21.7697 11.3289C21.776 11.0157 21.943 10.7391 22.2184 10.5875C22.3498 10.5141 22.505 10.4819 22.6466 10.4794C22.9357 10.4864 23.1652 10.7292 23.1584 11.0207L23.0104 17.1313C23.0104 17.1808 23.027 17.4014 23.0412 17.5297C23.0534 17.6695 23.0719 17.8118 23.0944 17.9515C23.3278 19.432 23.0466 20.7211 22.3024 21.583L22.3029 21.5825Z" fill="#101269"/>
<path d="M14.6817 4.03679C14.7462 4.28559 14.9679 4.45014 15.21 4.45014C15.2564 4.45014 15.3033 4.44419 15.3502 4.43131C15.6422 4.353 15.8165 4.04918 15.7394 3.75279L15.3912 2.4136C15.3141 2.11722 15.0142 1.93978 14.7227 2.01859C14.4307 2.0969 14.2564 2.40072 14.3336 2.6971L14.6817 4.03629V4.03679Z" fill="#101269"/>
<path d="M21.0973 7.08534C21.1427 7.08534 21.1891 7.07939 21.235 7.0675L22.5558 6.71907C22.8483 6.64225 23.0236 6.33892 22.9475 6.04204C22.8718 5.74566 22.5749 5.56673 22.2805 5.64455L20.9596 5.99298C20.6672 6.0698 20.4919 6.37312 20.568 6.67C20.632 6.9198 20.8537 7.08584 21.0973 7.08584V7.08534Z" fill="#101269"/>
<path d="M18.6061 4.64693C18.6808 4.68212 18.7594 4.69898 18.837 4.69898C19.0426 4.69898 19.2404 4.58052 19.3331 4.3783L20.0621 2.79081C20.1896 2.51276 20.0714 2.18267 19.7975 2.05331C19.5236 1.92445 19.1984 2.04389 19.0709 2.32194L18.3419 3.90993C18.214 4.18798 18.3326 4.51807 18.6061 4.64743V4.64693Z" fill="#101269"/>
</g>
<defs>
<clipPath id="clip0_1_555">
<rect width="18.2692" height="25" fill="white" transform="translate(6 2)"/>
</clipPath>
</defs>
</svg>
