<svg width="30" height="30" viewBox="0 0 30 30" fill="none" xmlns="http://www.w3.org/2000/svg">
<circle cx="15" cy="15" r="15" fill="#EAEAFF"/>
<path d="M26 9.13073C26 8.31869 25.3125 7.65839 24.467 7.65839H17.7503V6.64168C17.7503 5.18568 16.5162 4.00049 15.0002 4.00049C13.4842 4.00049 12.2502 5.18568 12.2502 6.64168V7.65839H5.53303C4.68751 7.658 4 8.3183 4 9.13073V21.5278C4 22.3398 4.68751 23.0001 5.53303 23.0001H24.4666C25.3121 23.0001 25.9996 22.3398 25.9996 21.5278V9.13073H26ZM12.8344 6.64129C12.8344 5.49579 13.8038 4.56157 14.9998 4.56157C16.1958 4.56157 17.1652 5.49268 17.1652 6.64129V8.80078C17.1652 8.94591 17.0417 9.06147 16.8938 9.06147H13.109C12.9579 9.06147 12.8376 8.94241 12.8376 8.80039V6.64129H12.8344ZM4.58785 9.13073C4.58785 8.6288 5.01405 8.22297 5.53303 8.22297H12.2502V8.80739C12.2502 9.26303 12.635 9.63267 13.1094 9.63267H16.891C17.3654 9.63267 17.7503 9.26264 17.7503 8.80739V8.22297H24.467C24.9896 8.22297 25.4122 8.6323 25.4122 9.13073V10.4677H4.58785V9.13073ZM25.4126 21.5278C25.4126 22.0297 24.9864 22.4355 24.4674 22.4355H5.53303C5.0104 22.4355 4.58785 22.0293 4.58785 21.5278V11.0326H25.4158V21.5278H25.4126Z" fill="#101269" stroke="#101269" stroke-width="0.5"/>
<path d="M14.9998 7.43692C15.6634 7.43692 16.1994 6.91865 16.1994 6.28169C16.1994 5.64474 15.6598 5.12646 14.9998 5.12646C14.3399 5.12646 13.7966 5.64474 13.7966 6.28169C13.7966 6.91865 14.3362 7.43692 14.9998 7.43692ZM14.9998 5.68715C15.3401 5.68715 15.6152 5.95446 15.6152 6.2813C15.6152 6.60815 15.3401 6.87546 14.9998 6.87546C14.6595 6.87546 14.3812 6.60815 14.3812 6.2813C14.3812 5.95446 14.6599 5.68715 14.9998 5.68715Z" fill="#101269" stroke="#101269" stroke-width="0.5"/>
<path d="M10.4246 21.0059C12.8757 21.0059 14.8726 19.0911 14.8726 16.734C14.8726 14.3768 12.8789 12.4586 10.4246 12.4586C7.97033 12.4586 5.97302 14.3768 5.97302 16.734C5.97302 19.0911 7.97033 21.0059 10.4246 21.0059ZM7.89133 19.53C8.26244 18.5032 9.27689 17.7966 10.4214 17.7966C11.1365 17.7966 11.8134 18.0639 12.3223 18.5526C12.6075 18.8265 12.8206 19.1635 12.9547 19.5265C12.2777 20.0942 11.3905 20.4409 10.4246 20.4409C9.45515 20.444 8.56831 20.0977 7.89093 19.5296L7.89133 19.53ZM9.53415 16.2254C9.53415 15.7534 9.9328 15.3702 10.421 15.3702C10.9092 15.3702 11.3078 15.753 11.3078 16.2254C11.3078 16.6978 10.9092 17.0771 10.421 17.0771C9.9328 17.0771 9.53415 16.6943 9.53415 16.2254ZM10.4246 13.0231C12.5524 13.0231 14.2852 14.6869 14.2852 16.734C14.2852 17.6285 13.9554 18.4475 13.4052 19.088C13.2436 18.7413 13.0203 18.4246 12.7384 18.1538C12.3328 17.7643 11.8377 17.4935 11.3018 17.3515C11.6591 17.0939 11.8928 16.688 11.8928 16.2258C11.8928 15.4433 11.2329 14.8095 10.4214 14.8095C9.60991 14.8095 8.94995 15.4433 8.94995 16.2258C8.94995 16.688 9.18371 17.0943 9.54104 17.3515C8.61288 17.6024 7.83583 18.2363 7.43718 19.088C6.88741 18.4475 6.55723 17.6289 6.55723 16.734C6.55723 14.6869 8.29323 13.0231 10.4246 13.0231Z" fill="#101269" stroke="#101269" stroke-width="0.5"/>
<path d="M15.505 13.2375H23.7345C23.8961 13.2375 24.0266 13.1122 24.0266 12.957C24.0266 12.8017 23.8961 12.6765 23.7345 12.6765H15.505C15.3434 12.6765 15.2129 12.8017 15.2129 12.957C15.2093 13.1122 15.3434 13.2375 15.505 13.2375Z" fill="#101269" stroke="#101269" stroke-width="0.5"/>
<path d="M23.7345 15.1951H22.2873C22.1257 15.1951 21.9952 15.3204 21.9952 15.4757C21.9952 15.6309 22.1257 15.7562 22.2873 15.7562H23.7345C23.8961 15.7562 24.0266 15.6309 24.0266 15.4757C24.0266 15.3204 23.8957 15.1951 23.7345 15.1951Z" fill="#101269" stroke="#101269" stroke-width="0.5"/>
<path d="M17.5298 15.7566H20.634C20.7956 15.7566 20.9261 15.6313 20.9261 15.476C20.9261 15.3208 20.7956 15.1955 20.634 15.1955H17.5298C17.3682 15.1955 17.2377 15.3208 17.2377 15.476C17.2341 15.6313 17.365 15.7566 17.5298 15.7566Z" fill="#101269" stroke="#101269" stroke-width="0.5"/>
<path d="M17.5298 18.2721H23.7345C23.8961 18.2721 24.0266 18.1468 24.0266 17.9915C24.0266 17.8363 23.8961 17.711 23.7345 17.711H17.5298C17.3682 17.711 17.2377 17.8363 17.2377 17.9915C17.2377 18.1468 17.3649 18.2721 17.5298 18.2721Z" fill="#101269" stroke="#101269" stroke-width="0.5"/>
<path d="M15.505 20.7911H23.7345C23.8961 20.7911 24.0266 20.6658 24.0266 20.5106C24.0266 20.3553 23.8961 20.23 23.7345 20.23H15.505C15.3434 20.23 15.2129 20.3553 15.2129 20.5106C15.2093 20.6658 15.3434 20.7911 15.505 20.7911Z" fill="#101269" stroke="#101269" stroke-width="0.5"/>
</svg>
