<svg width="30" height="30" viewBox="0 0 30 30" fill="none" xmlns="http://www.w3.org/2000/svg">
<circle cx="15" cy="15" r="15" fill="#EAEAFF"/>
<g clip-path="url(#clip0_1_562)">
<path d="M22.6101 4.35289H21.7647V3.67623C21.7647 3.30311 21.462 3 21.0884 3C20.7149 3 20.4122 3.30267 20.4122 3.67666V4.35332H9.58866V3.67666C9.58866 3.30311 9.28599 3 8.91199 3C8.538 3 8.23577 3.30267 8.23577 3.67666V4.35332H7.39081C5.24515 4.35289 3.5 6.09804 3.5 8.24326V22.1101C3.5 24.2549 5.24515 26 7.38994 26H22.6096C24.7549 26 26.5 24.2549 26.5 22.1101V8.24326C26.5 6.09804 24.7549 4.35332 22.6101 4.35332V4.35289ZM7.39037 5.70578H8.23577V7.05867C8.23577 7.43223 8.53844 7.73533 8.91243 7.73533C9.28642 7.73533 9.58866 7.43266 9.58866 7.05867V5.70578H20.4122V7.05867C20.4122 7.43223 20.7149 7.73533 21.0884 7.73533C21.462 7.73533 21.7647 7.43266 21.7647 7.05867V5.70578H22.6096C24.0086 5.70578 25.1467 6.84384 25.1467 8.24283V9.76445H4.85332V8.24283C4.85332 6.84384 5.99139 5.70578 7.39037 5.70578ZM22.6101 24.6467H7.39037C5.99139 24.6467 4.85332 23.5086 4.85332 22.1096V11.1173H25.1475V22.1096C25.1475 23.5086 24.009 24.6467 22.6105 24.6467H22.6101Z" fill="#101269"/>
<path d="M19.747 15.2168L17.1088 14.8338L15.929 12.4434C15.6371 11.8525 14.7922 11.8519 14.5003 12.4434L13.3204 14.8338L10.6822 15.2168C10.0303 15.3116 9.76866 16.1155 10.2408 16.5754L12.1493 18.4363L11.6987 21.0632C11.5876 21.7125 12.2707 22.2098 12.8545 21.903L15.2146 20.6628L17.5743 21.903C18.1596 22.2103 18.8412 21.7115 18.73 21.0632L18.2794 18.4363L20.1879 16.5754C20.6596 16.1155 20.3989 15.3116 19.7465 15.2168H19.747Z" fill="#101269"/>
<g clip-path="url(#clip1_1_562)">
<path d="M16.5393 17.137C16.427 16.9139 16.2423 16.7373 16.0165 16.6374C15.9322 16.5964 15.8421 16.5689 15.7496 16.5559C15.6789 16.5461 15.6076 16.5407 15.5363 16.5396C15.4452 16.5393 15.3542 16.5465 15.2642 16.5613C15.1823 16.5749 15.102 16.5967 15.0244 16.6265V15.4752C15.0254 15.4108 15.0218 15.3463 15.0137 15.2824C15.01 15.2447 14.994 15.2093 14.9682 15.182C14.9378 15.1575 14.9002 15.1441 14.8615 15.1439C14.8136 15.1404 14.7504 15.1385 14.6723 15.1385H14.6188C14.5371 15.1385 14.4703 15.1404 14.4189 15.1439C14.4031 15.1451 14.3873 15.1475 14.3718 15.151C14.3496 15.1547 14.3293 15.1591 14.3114 15.1637V15.1612C14.2971 15.166 14.2833 15.1709 14.2699 15.1759C14.2516 15.1817 14.2337 15.1888 14.2163 15.1971L14.2166 15.1974C14.2007 15.2042 14.1853 15.2112 14.1712 15.2184C14.1174 15.2463 14.0672 15.281 14.0218 15.3217C14.0108 15.3343 14.001 15.3479 13.9924 15.3623C13.9787 15.3881 13.9722 15.4172 13.9737 15.4465V15.68C13.9728 15.7031 13.9766 15.7261 13.9849 15.7476C13.9932 15.7691 14.0057 15.7886 14.0217 15.8049C14.0378 15.8212 14.0569 15.834 14.0781 15.8424C14.0992 15.8508 14.1218 15.8547 14.1444 15.8538H14.2353L14.2402 19.1028C14.2402 19.168 14.25 19.2088 14.2695 19.225C14.2906 19.2421 14.3152 19.2542 14.3415 19.2604C14.4893 19.3099 14.6399 19.3506 14.7923 19.3825C14.9741 19.4186 15.1592 19.4341 15.3443 19.4286C15.4826 19.4295 15.6206 19.4131 15.7551 19.3798C15.8623 19.3494 15.966 19.3076 16.0645 19.2549C16.1896 19.1897 16.2989 19.0969 16.3844 18.9834C16.4837 18.8436 16.5628 18.6899 16.619 18.5272C16.6838 18.3462 16.7163 18.155 16.7152 17.9624C16.7232 17.6768 16.6628 17.3935 16.5393 17.137ZM15.9097 18.0954C15.9045 18.1588 15.8938 18.2215 15.8777 18.2829C15.8557 18.3702 15.8206 18.4535 15.7738 18.53C15.7373 18.5928 15.6848 18.6444 15.6218 18.6793C15.5967 18.6865 15.5621 18.6947 15.5176 18.7036C15.4639 18.7136 15.4095 18.7182 15.3549 18.7173C15.3017 18.7173 15.2519 18.7164 15.2058 18.7146C15.1628 18.7132 15.12 18.7086 15.0777 18.701C15.0594 18.7002 15.0415 18.6966 15.0244 18.6901V17.3705L15.147 17.3271C15.2663 17.2801 15.3926 17.2544 15.5204 17.251C15.5752 17.2499 15.6296 17.2601 15.6805 17.2809C15.7293 17.3031 15.7702 17.34 15.7977 17.3867C15.8371 17.4493 15.866 17.5181 15.8832 17.5904C15.902 17.6733 15.9127 17.7578 15.9151 17.8429C15.9189 17.9271 15.917 18.0115 15.9097 18.0954Z" fill="#EAEAFF"/>
</g>
</g>
<defs>
<clipPath id="clip0_1_562">
<rect width="23" height="23" fill="white" transform="translate(3.5 3)"/>
</clipPath>
<clipPath id="clip1_1_562">
<rect width="3.2029" height="4.71015" fill="white" transform="translate(13.743 14.9287)"/>
</clipPath>
</defs>
</svg>
