<svg width="30" height="30" viewBox="0 0 30 30" fill="none" xmlns="http://www.w3.org/2000/svg">
<circle cx="15" cy="15" r="15" fill="#EAEAFF"/>
<g clip-path="url(#clip0_1_254)">
<path d="M28.8756 16.0683C28.7049 15.5418 28.3658 15.1176 27.9381 14.8135V7.61672C27.9381 6.97009 27.7261 6.32996 27.3419 5.81482L26.4205 4.56269C25.9606 3.9469 25.0821 3.8165 24.4655 4.27265C24.1623 4.49884 23.9659 4.82946 23.9117 5.20336C23.8581 5.57619 23.952 5.95064 24.1774 6.25637L25.0993 7.49713C25.1234 7.53393 25.1385 7.57776 25.1385 7.61618V13.5192L24.8154 12.8601C24.3947 11.9992 23.542 11.4635 22.5906 11.4635C21.6391 11.4635 20.7826 11.9986 20.3646 12.8601L19.7287 14.1577L18.3099 14.3649C17.3659 14.5029 16.598 15.1566 16.3039 16.0705C16.29 16.1132 16.2927 16.1554 16.2814 16.1982C15.7619 16.169 15.2334 16.169 14.7139 16.1982C14.7026 16.1549 14.7042 16.11 14.6903 16.0678C14.3951 15.1549 13.6272 14.5024 12.687 14.3655L11.2661 14.1582L10.6301 12.8606C10.2094 11.9997 9.35672 11.464 8.40528 11.464C7.45383 11.464 6.59737 11.9992 6.17934 12.8606L5.85629 13.5197V7.61672C5.85629 7.57776 5.87185 7.53447 5.88848 7.50796L6.82007 6.25582C7.04653 5.95064 7.14044 5.57673 7.08678 5.2039C7.03204 4.82891 6.83564 4.49938 6.5319 4.27319C5.918 3.81596 5.03793 3.94636 4.57589 4.56377L3.65771 5.81211C3.27134 6.32887 3.06044 6.97009 3.06044 7.61672V14.8135C2.63114 15.1187 2.29199 15.5429 2.12242 16.071C1.82834 16.985 2.06875 17.9676 2.75188 18.6364L3.77846 19.6462L3.53536 21.0741C3.41247 21.8025 3.6121 22.5438 4.0838 23.106C4.81522 23.981 6.12621 24.2461 7.13883 23.711L8.40957 23.0378L9.68138 23.7121C10.0372 23.8993 10.4353 23.9989 10.8346 23.9989C11.5671 23.9989 12.2604 23.6742 12.7343 23.1076C13.206 22.5422 13.4056 21.8009 13.2806 21.0725L13.038 19.6462L13.4759 19.2154C13.4898 19.2116 13.5059 19.2127 13.5199 19.2089C14.518 18.9249 16.481 18.9276 17.484 19.21L17.5291 19.2203L17.9621 19.6467L17.719 21.0747C17.5961 21.803 17.7958 22.5443 18.2675 23.1066C18.9989 23.9815 20.3093 24.2467 21.3225 23.7115L22.5932 23.0384L23.8651 23.7126C24.2208 23.8998 24.619 23.9994 25.0183 23.9994C25.7508 23.9994 26.4441 23.6747 26.9179 23.1082C27.3896 22.5427 27.5893 21.8014 27.4642 21.0731L27.2217 19.6467L28.2493 18.6364C28.9319 17.9644 29.1723 16.9796 28.8766 16.0678L28.8756 16.0683ZM24.7424 5.83376C24.6297 5.68008 24.582 5.49286 24.6083 5.30617C24.6357 5.12057 24.7333 4.95553 24.8825 4.84407C25.1921 4.6168 25.629 4.68227 25.857 4.98692L26.7773 6.23905C27.0714 6.63298 27.2329 7.12268 27.2329 7.61564V14.4704C27.1127 14.4336 26.999 14.3833 26.8713 14.3644L25.842 14.2145V7.61618C25.842 7.43328 25.783 7.24606 25.6687 7.0821L24.743 5.83322L24.7424 5.83376ZM3.76558 7.61672C3.76558 7.12323 3.9271 6.63406 4.22171 6.23797L5.13989 4.98962C5.37171 4.68281 5.80692 4.61572 6.11548 4.84461C6.26574 4.95553 6.36286 5.12003 6.39077 5.30563C6.41706 5.49232 6.3693 5.67954 6.25876 5.83105L5.3218 7.0913C5.21448 7.24552 5.15545 7.4322 5.15545 7.61618V14.2156L4.1278 14.3655C4.00008 14.3844 3.88524 14.4347 3.7645 14.4715V7.61672H3.76558ZM12.4139 19.2668C12.3302 19.348 12.2926 19.466 12.3136 19.5812L12.5878 21.191C12.6758 21.7137 12.533 22.244 12.196 22.6472C11.6701 23.2748 10.7289 23.4615 10.0087 23.0817L8.57378 22.3203C8.52226 22.2938 8.46592 22.2797 8.40957 22.2797C8.35323 22.2797 8.29688 22.2938 8.24536 22.3203L6.81256 23.0806C6.08543 23.4653 5.14847 23.2748 4.62472 22.6466C4.28772 22.2435 4.1439 21.7132 4.23137 21.191L4.50559 19.5801C4.52544 19.4643 4.48788 19.3475 4.40524 19.2658L3.24666 18.1256C2.75725 17.6462 2.58553 16.9428 2.79589 16.2875C3.00732 15.6344 3.55736 15.1652 4.23244 15.0667L5.83428 14.833C5.94912 14.8157 6.0484 14.7431 6.09884 14.6387L6.81739 13.1728C7.11683 12.5565 7.72859 12.1729 8.41118 12.1729C9.09377 12.1729 9.70339 12.5565 10.005 13.1739L10.7224 14.6387C10.774 14.7431 10.8727 14.8167 10.987 14.833L12.591 15.0667C13.2645 15.1652 13.814 15.6322 14.0249 16.2864C14.2363 16.9395 14.064 17.6451 13.5752 18.1246L12.4139 19.2658V19.2668ZM14.2835 18.3513C14.6066 17.9281 14.788 17.4287 14.7998 16.9065C15.2645 16.8822 15.733 16.8822 16.1982 16.9065C16.2106 17.4303 16.3919 17.9281 16.7139 18.3507C15.9481 18.2647 15.0552 18.2636 14.2835 18.3518V18.3513ZM26.5965 19.2668C26.5128 19.348 26.4752 19.466 26.4961 19.5812L26.7704 21.191C26.8584 21.7137 26.7156 22.244 26.3786 22.6472C25.8527 23.2748 24.9126 23.4615 24.1913 23.0817L22.7564 22.3203C22.7049 22.2938 22.6485 22.2797 22.5922 22.2797C22.5358 22.2797 22.4795 22.2938 22.428 22.3203L20.9952 23.0806C20.2691 23.4653 19.3321 23.2748 18.8073 22.6466C18.4703 22.2435 18.3265 21.7132 18.414 21.191L18.6882 19.5801C18.708 19.4643 18.6705 19.3475 18.5878 19.2658L17.4292 18.1256C16.9398 17.6462 16.7681 16.9428 16.9785 16.2875C17.1899 15.6344 17.74 15.1652 18.415 15.0667L20.0174 14.833C20.1323 14.8157 20.2315 14.7431 20.282 14.6387L21.0005 13.1728C21.3 12.5565 21.9117 12.1729 22.5943 12.1729C23.2769 12.1729 23.8865 12.5565 24.1881 13.1739L24.9056 14.6387C24.9571 14.7431 25.0558 14.8167 25.1701 14.833L26.7741 15.0667C27.4476 15.1652 27.9966 15.6322 28.208 16.2864C28.4194 16.9395 28.2472 17.6451 27.7583 18.1246L26.597 19.2658L26.5965 19.2668Z" fill="#101269"/>
<path d="M26.6179 16.129L24.2766 15.7806L23.2339 13.6497C22.9898 13.1524 22.1923 13.1551 21.9503 13.6486L20.8985 15.7871L18.5658 16.129C18.2943 16.1685 18.0726 16.3563 17.9884 16.6204C17.9031 16.8828 17.9723 17.1669 18.1687 17.3601L19.8612 19.0305L19.4614 21.374C19.4153 21.6467 19.5253 21.9168 19.748 22.0796C19.8736 22.1716 20.0201 22.2176 20.1676 22.2176C20.2814 22.2176 20.3946 22.19 20.5009 22.1343L22.597 21.0283L24.6839 22.1343C24.9302 22.2631 25.2157 22.2425 25.4379 22.0791C25.6606 21.9162 25.7706 21.6462 25.7234 21.3729L25.3279 19.0207L27.0166 17.3606C27.213 17.1674 27.2823 16.8844 27.197 16.6209C27.1116 16.3552 26.89 16.168 26.6185 16.128L26.6179 16.129Z" fill="#101269"/>
<path d="M12.4348 16.129L10.0934 15.7805L9.05077 13.6496C8.80768 13.1545 8.01025 13.1534 7.76715 13.6485L6.71536 15.787L4.38263 16.129C4.11109 16.1685 3.88947 16.3562 3.80521 16.6203C3.71989 16.8827 3.78912 17.1668 3.98552 17.36L5.67805 19.0304L5.27826 21.3739C5.23211 21.6467 5.34212 21.9167 5.56482 22.0796C5.6904 22.1715 5.8369 22.2175 5.98447 22.2175C6.09823 22.2175 6.21146 22.1899 6.31772 22.1342L8.41379 21.0282L10.5007 22.1342C10.746 22.263 11.0325 22.2424 11.2547 22.079C11.4774 21.9161 11.5874 21.6461 11.5402 21.3729L11.1447 19.0207L12.8329 17.3605C13.0293 17.1674 13.0986 16.8844 13.0132 16.6208C12.929 16.3551 12.7063 16.1679 12.4348 16.1279V16.129Z" fill="#101269"/>
<g clip-path="url(#clip1_1_254)">
<path d="M9.53925 18.1369C9.42704 17.9138 9.24226 17.7372 9.01645 17.6373C8.93216 17.5963 8.84215 17.5688 8.7496 17.5559C8.67888 17.5461 8.60764 17.5406 8.53627 17.5396C8.44516 17.5392 8.35417 17.5465 8.26422 17.5613C8.18233 17.5748 8.10197 17.5966 8.02436 17.6265V16.4752C8.02537 16.4107 8.0218 16.3463 8.01368 16.2823C8.00999 16.2446 7.99399 16.2093 7.96822 16.1819C7.93782 16.1574 7.90023 16.144 7.86146 16.1439C7.81364 16.1403 7.75042 16.1384 7.67229 16.1384H7.61878C7.53708 16.1384 7.47031 16.1403 7.41893 16.1439C7.40307 16.145 7.38732 16.1474 7.37181 16.151C7.34961 16.1546 7.32926 16.159 7.31139 16.1636V16.1611C7.29706 16.1659 7.2833 16.1708 7.26993 16.1758C7.25159 16.1816 7.23367 16.1887 7.21629 16.1971L7.21659 16.1973C7.20068 16.2042 7.18533 16.2112 7.1712 16.2183C7.11738 16.2463 7.06719 16.281 7.0218 16.3216C7.01081 16.3342 7.00098 16.3478 6.99243 16.3622C6.97866 16.388 6.97219 16.4172 6.97373 16.4465V16.6799C6.97284 16.703 6.97664 16.726 6.9849 16.7475C6.99316 16.769 7.0057 16.7885 7.02173 16.8049C7.03777 16.8212 7.05694 16.834 7.07806 16.8424C7.09917 16.8508 7.12177 16.8547 7.14443 16.8537H7.2353L7.24017 20.1028C7.24017 20.168 7.24996 20.2087 7.26953 20.225C7.29063 20.2421 7.31523 20.2541 7.34151 20.2603C7.48934 20.3098 7.63986 20.3506 7.79233 20.3824C7.97405 20.4186 8.15917 20.4341 8.34426 20.4286C8.48263 20.4295 8.6206 20.4131 8.75505 20.3797C8.86225 20.3494 8.96598 20.3075 9.06451 20.2549C9.18959 20.1896 9.29885 20.0969 9.3844 19.9833C9.48374 19.8435 9.56276 19.6899 9.61904 19.5271C9.6838 19.3462 9.71635 19.1549 9.71516 18.9623C9.72316 18.6767 9.66279 18.3934 9.53925 18.1369ZM8.90966 19.0954C8.90446 19.1587 8.89376 19.2214 8.8777 19.2828C8.85566 19.3701 8.82062 19.4534 8.77379 19.5299C8.73728 19.5927 8.68476 19.6443 8.62178 19.6792C8.59668 19.6865 8.56211 19.6947 8.5176 19.7036C8.46394 19.7135 8.40946 19.7181 8.35493 19.7172C8.30166 19.7172 8.25194 19.7163 8.20577 19.7146C8.1628 19.7131 8.11999 19.7085 8.07765 19.7009C8.05945 19.7002 8.04147 19.6965 8.02437 19.6901V18.3704L8.14702 18.327C8.26629 18.2801 8.39259 18.2543 8.52041 18.2509C8.57519 18.2499 8.62962 18.26 8.68047 18.2808C8.72925 18.303 8.77016 18.34 8.79767 18.3866C8.8371 18.4492 8.86599 18.518 8.88316 18.5903C8.90203 18.6732 8.91274 18.7578 8.91511 18.8428C8.91887 18.927 8.91705 19.0114 8.90966 19.0954Z" fill="#EAEAFF"/>
</g>
<g clip-path="url(#clip2_1_254)">
<path d="M23.7963 18.1369C23.6841 17.9138 23.4993 17.7372 23.2735 17.6373C23.1892 17.5963 23.0992 17.5688 23.0066 17.5559C22.9359 17.5461 22.8647 17.5406 22.7933 17.5396C22.7022 17.5392 22.6112 17.5465 22.5212 17.5613C22.4393 17.5748 22.359 17.5966 22.2814 17.6265V16.4752C22.2824 16.4107 22.2788 16.3463 22.2707 16.2823C22.267 16.2446 22.251 16.2093 22.2252 16.1819C22.1948 16.1574 22.1572 16.144 22.1185 16.1439C22.0707 16.1403 22.0074 16.1384 21.9293 16.1384H21.8758C21.7941 16.1384 21.7273 16.1403 21.6759 16.1439C21.6601 16.145 21.6443 16.1474 21.6288 16.151C21.6066 16.1546 21.5863 16.159 21.5684 16.1636V16.1611C21.5541 16.1659 21.5403 16.1708 21.527 16.1758C21.5086 16.1816 21.4907 16.1887 21.4733 16.1971L21.4736 16.1973C21.4577 16.2042 21.4423 16.2112 21.4282 16.2183C21.3744 16.2463 21.3242 16.281 21.2788 16.3216C21.2678 16.3342 21.258 16.3478 21.2495 16.3622C21.2357 16.388 21.2292 16.4172 21.2308 16.4465V16.6799C21.2299 16.703 21.2337 16.726 21.2419 16.7475C21.2502 16.769 21.2627 16.7885 21.2788 16.8049C21.2948 16.8212 21.314 16.834 21.3351 16.8424C21.3562 16.8508 21.3788 16.8547 21.4014 16.8537H21.4923L21.4972 20.1028C21.4972 20.168 21.507 20.2087 21.5265 20.225C21.5477 20.2421 21.5722 20.2541 21.5985 20.2603C21.7464 20.3098 21.8969 20.3506 22.0493 20.3824C22.2311 20.4186 22.4162 20.4341 22.6013 20.4286C22.7397 20.4295 22.8776 20.4131 23.0121 20.3797C23.1193 20.3494 23.223 20.3075 23.3215 20.2549C23.4466 20.1896 23.5559 20.0969 23.6414 19.9833C23.7408 19.8435 23.8198 19.6899 23.8761 19.5271C23.9408 19.3462 23.9734 19.1549 23.9722 18.9623C23.9802 18.6767 23.9198 18.3934 23.7963 18.1369ZM23.1667 19.0954C23.1615 19.1587 23.1508 19.2214 23.1347 19.2828C23.1127 19.3701 23.0776 19.4534 23.0308 19.5299C22.9943 19.5927 22.9418 19.6443 22.8788 19.6792C22.8537 19.6865 22.8191 19.6947 22.7746 19.7036C22.721 19.7135 22.6665 19.7181 22.6119 19.7172C22.5587 19.7172 22.509 19.7163 22.4628 19.7146C22.4198 19.7131 22.377 19.7085 22.3347 19.7009C22.3165 19.7002 22.2985 19.6965 22.2814 19.6901V18.3704L22.404 18.327C22.5233 18.2801 22.6496 18.2543 22.7774 18.2509C22.8322 18.2499 22.8866 18.26 22.9375 18.2808C22.9863 18.303 23.0272 18.34 23.0547 18.3866C23.0941 18.4492 23.123 18.518 23.1402 18.5903C23.1591 18.6732 23.1698 18.7578 23.1721 18.8428C23.1759 18.927 23.1741 19.0114 23.1667 19.0954Z" fill="#EAEAFF"/>
</g>
</g>
<defs>
<clipPath id="clip0_1_254">
<rect width="27" height="20" fill="white" transform="translate(2 4)"/>
</clipPath>
<clipPath id="clip1_1_254">
<rect width="3.2029" height="4.71015" fill="white" transform="translate(6.74298 15.9287)"/>
</clipPath>
<clipPath id="clip2_1_254">
<rect width="3.2029" height="4.71015" fill="white" transform="translate(21 15.9287)"/>
</clipPath>
</defs>
</svg>
