<svg width="30" height="30" viewBox="0 0 30 30" fill="none" xmlns="http://www.w3.org/2000/svg">
<circle cx="15" cy="15" r="15" fill="#EAEAFF"/>
<g clip-path="url(#clip0_1_549)">
<path d="M10.9358 8.27085V2.58042C10.9358 2.01577 11.2372 1.49395 11.726 1.21162C12.2152 0.929296 12.8176 0.929296 13.3063 1.21162C13.7956 1.49395 14.0965 2.01577 14.0965 2.58042V5.67416C14.3928 5.52912 14.7272 5.48215 15.0518 5.53944C15.3765 5.59674 15.6748 5.75571 15.9029 5.99365C16.1316 5.75571 16.4294 5.59674 16.754 5.53944C17.0786 5.48215 17.4131 5.52912 17.7093 5.67416V4.38691C17.7093 3.82225 18.0108 3.30044 18.4995 3.01811C18.9888 2.73578 19.5911 2.73578 20.0799 3.01811C20.5692 3.30044 20.8701 3.82225 20.8701 4.38691V13.1933C20.869 13.9494 20.6574 14.6901 20.2585 15.3321C19.8595 15.9747 19.2897 16.4924 18.6125 16.8289V18.1611H19.0642C19.3134 18.1611 19.5158 18.3634 19.5158 18.6127V21.3224C19.5158 21.4422 19.4683 21.5573 19.3836 21.6419C19.299 21.7266 19.1839 21.7741 19.0642 21.7741H18.6125V29H17.7093V21.7741H15.4513V22.3088C15.8565 22.4518 16.1692 22.779 16.2952 23.1898C16.4206 23.6007 16.3442 24.0466 16.0887 24.3919C15.8332 24.7372 15.4291 24.9411 14.9992 24.9411C14.5693 24.9411 14.1657 24.7372 13.9097 24.3919C13.6542 24.0466 13.5778 23.6002 13.7032 23.1898C13.8292 22.779 14.1419 22.4523 14.5471 22.3088V21.7741H12.2891V29H11.3858V21.7741H10.9342C10.8145 21.7741 10.6994 21.7266 10.6148 21.6419C10.5301 21.5573 10.4826 21.4422 10.4826 21.3224V18.6127C10.4826 18.493 10.5301 18.3779 10.6148 18.2932C10.6994 18.2086 10.8145 18.1611 10.9342 18.1611H11.3858V16.8289C10.7087 16.4929 10.1384 15.9747 9.73994 15.3321C9.34098 14.6901 9.12885 13.9494 9.12782 13.1933V10.4835C9.12834 9.96327 9.30846 9.459 9.63775 9.0559C9.96703 8.65279 10.4248 8.37563 10.9342 8.27085H10.9358ZM15.0002 24.0327C15.1829 24.0327 15.3476 23.9228 15.4173 23.754C15.4874 23.5852 15.4487 23.3911 15.3197 23.2616C15.1907 23.132 14.9961 23.0938 14.8273 23.164C14.6586 23.2337 14.5486 23.3984 14.5486 23.5811C14.5486 23.7008 14.5961 23.8159 14.6808 23.9006C14.7654 23.9852 14.8805 24.0327 15.0002 24.0327ZM13.1938 2.58094C13.1938 2.20674 12.8903 1.90377 12.5167 1.90377C12.143 1.90377 11.8395 2.20725 11.8395 2.58094V8.22646H13.1943V2.58094H13.1938ZM14.7742 6.41998C14.4 6.41998 14.097 6.72347 14.097 7.09715V8.38492C14.5559 8.60015 14.8826 9.0239 14.9744 9.52197C15.0663 10.02 14.912 10.5321 14.5595 10.897C14.7654 10.9713 14.9951 10.9393 15.1731 10.8123C15.3512 10.6848 15.4554 10.4779 15.4518 10.259V7.09767C15.4518 6.72347 15.1484 6.42049 14.7747 6.42049L14.7742 6.41998ZM17.0322 6.41998C16.658 6.41998 16.355 6.72347 16.355 7.09715V10.2585C16.355 10.6327 16.6585 10.9357 17.0322 10.9357C17.4059 10.9357 17.7093 10.6322 17.7093 10.2585V7.09715C17.7093 6.72295 17.4059 6.41998 17.0322 6.41998ZM11.3869 20.8719H18.6125V19.0654H11.3869V20.8719ZM10.0321 13.1943C10.0331 14.0325 10.3665 14.8361 10.959 15.4287C11.5515 16.0212 12.3551 16.3546 13.1933 16.3556V17.2589C12.8893 17.2579 12.5863 17.2228 12.2901 17.1541V18.1621H17.7093V17.1541C17.4131 17.2228 17.1101 17.2579 16.8061 17.2589V16.3556C17.6443 16.3546 18.4479 16.0212 19.0404 15.4287C19.6329 14.8361 19.9663 14.0325 19.9674 13.1943V4.38794C19.9674 4.01374 19.6639 3.71077 19.2902 3.71077C18.9165 3.71077 18.6131 4.01426 18.6131 4.38794V10.259C18.6136 10.6802 18.4458 11.0843 18.1465 11.3816C17.8471 11.6784 17.442 11.8436 17.0208 11.8399C16.5997 11.8363 16.1971 11.6645 15.9034 11.3625C15.6077 11.6676 15.201 11.8399 14.7762 11.8405C14.3515 11.841 13.9448 11.6701 13.648 11.3656C13.5726 11.3785 13.4963 11.3863 13.4194 11.3888H12.2901V12.2921C12.8888 12.2931 13.4627 12.5311 13.8859 12.9543C14.3091 13.3775 14.5471 13.9515 14.5481 14.5502V15.4534H13.6449V14.5502C13.6449 14.191 13.5019 13.8462 13.248 13.5922C12.9941 13.3383 12.6493 13.1953 12.2901 13.1953H11.8385C11.7187 13.1953 11.6036 13.1478 11.519 13.0632C11.4344 12.9785 11.3869 12.8635 11.3869 12.7437V10.9372C11.3869 10.8175 11.4344 10.7024 11.519 10.6177C11.6036 10.5331 11.7187 10.4856 11.8385 10.4856H13.4188C13.793 10.4856 14.096 10.1821 14.096 9.80843C14.096 9.43474 13.7925 9.13125 13.4188 9.13125H11.3864C11.0271 9.13125 10.6824 9.27422 10.4284 9.52816C10.1745 9.7821 10.0315 10.1269 10.0315 10.4861V13.1958L10.0321 13.1943Z" fill="#101269" stroke="#101269" stroke-width="0.25"/>
<path d="M1.25031 14.5961L3.66833 13.3873L3.26163 10.5485C3.23634 10.372 3.31686 10.1976 3.46808 10.1026C3.61879 10.0076 3.8113 10.0102 3.95942 10.1088L8.02386 12.8185L7.52271 13.57L4.29903 11.4208L4.60767 13.5819C4.63554 13.7744 4.53645 13.9633 4.36251 14.0505L2.46165 15.0013L4.36355 15.9499C4.55812 16.047 4.65619 16.2689 4.59632 16.4785L3.94549 18.7541L7.60736 17.2893L7.94232 18.1286L3.42627 19.935C3.26679 19.9985 3.0846 19.966 2.95712 19.8514C2.82912 19.7363 2.77803 19.5588 2.82448 19.3931L3.62549 16.593L1.25083 15.408C1.09754 15.3316 1.00051 15.1752 1.00051 15.0039C1.00051 14.8325 1.09754 14.6761 1.25083 14.5997V14.5977L1.25031 14.5961Z" fill="#101269" stroke="#101269" stroke-width="0.25"/>
<path d="M21.9751 12.818L26.0395 10.1083C26.1877 10.0097 26.3802 10.0071 26.5309 10.1021C26.6816 10.1971 26.7621 10.3721 26.7373 10.5481L26.3306 13.3868L28.7497 14.5956C28.903 14.672 29 14.8289 29 14.9998C29 15.1706 28.903 15.3275 28.7497 15.4039L26.375 16.591L27.176 19.3911C27.2225 19.5562 27.1714 19.7338 27.0434 19.8494C26.9159 19.9645 26.7337 19.997 26.5742 19.933L22.0582 18.1265L22.3932 17.2873L26.055 18.7547L25.4042 16.479C25.3443 16.27 25.4419 16.0475 25.637 15.9505L27.5383 14.9998L25.637 14.0511C25.4625 13.9644 25.3639 13.7755 25.3918 13.583L25.7004 11.4219L22.4768 13.5711L21.9756 12.817L21.9751 12.818Z" fill="#101269" stroke="#101269" stroke-width="0.25"/>
</g>
<defs>
<clipPath id="clip0_1_549">
<rect width="28" height="28" fill="white" transform="matrix(-1 0 0 1 29 1)"/>
</clipPath>
</defs>
</svg>
